<?xml version="1.0" encoding="UTF-8" standalone="no"?>
<!-- Created with Inkscape (http://www.inkscape.org/) -->

<svg
   xmlns:dc="http://purl.org/dc/elements/1.1/"
   xmlns:cc="http://creativecommons.org/ns#"
   xmlns:rdf="http://www.w3.org/1999/02/22-rdf-syntax-ns#"
   xmlns:svg="http://www.w3.org/2000/svg"
   xmlns="http://www.w3.org/2000/svg"
   xmlns:sodipodi="http://sodipodi.sourceforge.net/DTD/sodipodi-0.dtd"
   xmlns:inkscape="http://www.inkscape.org/namespaces/inkscape"
   width="744.09448819"
   height="1052.3622047"
   id="svg2"
   version="1.1"
   inkscape:version="0.48.1 r9760"
   sodipodi:docname="tab_graph_selected.svg">
  <defs
     id="defs4">
    <filter
       id="filter3837"
       inkscape:label="Glow"
       inkscape:menu="Shadows and Glows"
       inkscape:menu-tooltip="Glow of object's own color at the edges"
       color-interpolation-filters="sRGB">
      <feGaussianBlur
         id="feGaussianBlur3839"
         stdDeviation="5"
         result="result91" />
      <feComposite
         id="feComposite3841"
         in2="result91"
         in="SourceGraphic"
         operator="over" />
    </filter>
    <filter
       inkscape:collect="always"
       id="filter3957"
       x="-0.12466455"
       width="1.2493291"
       y="-0.1246861"
       height="1.2493722">
      <feGaussianBlur
         inkscape:collect="always"
         stdDeviation="2.2859118"
         id="feGaussianBlur3959" />
    </filter>
  </defs>
  <sodipodi:namedview
     id="base"
     pagecolor="#ffffff"
     bordercolor="#666666"
     borderopacity="1.0"
     inkscape:pageopacity="0.0"
     inkscape:pageshadow="2"
     inkscape:zoom="14.47"
     inkscape:cx="112.36535"
     inkscape:cy="676.10982"
     inkscape:document-units="px"
     inkscape:current-layer="layer1"
     showgrid="false"
     showguides="true"
     inkscape:guide-bbox="true"
     inkscape:window-width="1920"
     inkscape:window-height="1148"
     inkscape:window-x="0"
     inkscape:window-y="24"
     inkscape:window-maximized="1"
     inkscape:snap-global="false">
    <sodipodi:guide
       orientation="1,0"
       position="99.913574,515.22597"
       id="guide2985" />
    <sodipodi:guide
       orientation="1,0"
       position="148.01901,689.49275"
       id="guide2987" />
    <sodipodi:guide
       orientation="0,1"
       position="178.94968,700.14064"
       id="guide2989" />
    <sodipodi:guide
       orientation="0,1"
       position="120.33829,652.00237"
       id="guide2991" />
    <sodipodi:guide
       orientation="1,0"
       position="101.9816,687.55024"
       id="guide3772" />
    <sodipodi:guide
       orientation="1,0"
       position="145.97938,684.15086"
       id="guide3774" />
    <sodipodi:guide
       orientation="0,1"
       position="135.10134,698.03978"
       id="guide3776" />
    <sodipodi:guide
       orientation="0,1"
       position="121.60092,654.042"
       id="guide3778" />
  </sodipodi:namedview>
  <metadata
     id="metadata7">
    <rdf:RDF>
      <cc:Work
         rdf:about="">
        <dc:format>image/svg+xml</dc:format>
        <dc:type
           rdf:resource="http://purl.org/dc/dcmitype/StillImage" />
        <dc:title></dc:title>
      </cc:Work>
    </rdf:RDF>
  </metadata>
  <g
     inkscape:label="Layer 1"
     inkscape:groupmode="layer"
     id="layer1"
     style="display:inline">
    <path
       style="opacity:0.3876652;fill:#000000;fill-opacity:1;stroke:#330000;stroke-width:0;stroke-linecap:round;stroke-linejoin:round;stroke-miterlimit:10.60000038000000089;stroke-opacity:1;stroke-dasharray:none;filter:url(#filter3957)"
       d="m 106.44813,354.25236 c -2.47514,0 -4.46875,1.99361 -4.46875,4.46875 -0.004,12.57132 -0.0149,24.27737 0,35.09375 0,1.5226 0.76355,2.82896 1.90625,3.625 l 1.875,-11.65625 0,-0.125 0.0312,-0.0937 4.1875,-10.6875 0.5625,-1.40625 1.0625,1.0625 5.5,5.5 7.4375,-14.8125 0.53125,-1.03125 0.9375,0.65625 c 0,0 1.48439,1.02676 2.96875,2.0625 0.74218,0.51789 1.4714,1.04068 2.03125,1.4375 0.0885,0.0627 0.14005,0.10015 0.21875,0.15625 0.17384,-0.21112 0.32245,-0.38593 0.5625,-0.6875 0.72015,-0.90472 1.68862,-2.14996 2.65625,-3.40625 1.93525,-2.51258 3.875,-5.0625 3.875,-5.0625 l 0.28125,-0.375 0.4375,-0.0312 6.90625,-0.5625 c -0.17664,-2.31126 -2.07957,-4.125 -4.4375,-4.125 l -35.0625,0 z m 39.53125,6.15625 -6.34375,0.5 c -0.25371,0.33453 -1.79433,2.38253 -3.59375,4.71875 -1.30584,1.69434 -2.96175,3.64283 -4.46875,5.53125 -0.38739,-0.26417 -0.58639,-0.44069 -1.71875,-1.1875 -0.5519,-0.39118 -1.29109,-0.88977 -2.03125,-1.40625 -1.01169,-0.70596 -1.4918,-1.03223 -2.03125,-1.40625 l -7.53125,15 -0.625,1.21875 -0.96875,-0.96875 -5.375,-5.34375 -3.59375,9.125 -1.90625,12 c 0.21255,0.0309 0.4354,0.0625 0.65625,0.0625 l 4.09375,0 7,0 1.53125,0 21.9375,0 0.5,0 c 2.47514,0 4.46875,-1.99361 4.46875,-4.46875 l 0,-33.375 z"
       id="rect3782"
       inkscape:connector-curvature="0" />
    <rect
       style="opacity:0.32365148;fill:none;stroke:none"
       id="rect3780"
       width="48.105434"
       height="48.138271"
       x="99.913574"
       y="352.22156" />
  </g>
  <g
     inkscape:groupmode="layer"
     id="layer3"
     inkscape:label="Layer 2"
     style="display:inline">
    <path
       inkscape:connector-curvature="0"
       style="fill:#ffffff;fill-opacity:1;stroke:#330000;stroke-width:0;stroke-linecap:round;stroke-linejoin:round;stroke-miterlimit:10.60000038;stroke-opacity:1;stroke-dasharray:none"
       d="m 106.44813,354.35274 c -2.47514,0 -4.46875,1.99361 -4.46875,4.46875 -0.004,12.57132 -0.0149,24.27737 0,35.09375 0,1.5226 0.76355,2.82896 1.90625,3.625 l 1.875,-11.65625 0,-0.125 0.0312,-0.0937 4.1875,-10.6875 0.5625,-1.40625 1.0625,1.0625 5.5,5.5 7.4375,-14.8125 0.53125,-1.03125 0.9375,0.65625 c 0,0 1.48439,1.02676 2.96875,2.0625 0.74218,0.51789 1.4714,1.04068 2.03125,1.4375 0.0885,0.0627 0.14005,0.10015 0.21875,0.15625 0.17384,-0.21112 0.32245,-0.38593 0.5625,-0.6875 0.72015,-0.90472 1.68862,-2.14996 2.65625,-3.40625 1.93525,-2.51258 3.875,-5.0625 3.875,-5.0625 l 0.28125,-0.375 0.4375,-0.0312 6.90625,-0.5625 c -0.17664,-2.31126 -2.07957,-4.125 -4.4375,-4.125 l -35.0625,0 z m 39.53125,6.15625 -6.34375,0.5 c -0.25371,0.33453 -1.79433,2.38253 -3.59375,4.71875 -1.30584,1.69434 -2.96175,3.64283 -4.46875,5.53125 -0.38739,-0.26417 -0.58639,-0.44069 -1.71875,-1.1875 -0.5519,-0.39118 -1.29109,-0.88977 -2.03125,-1.40625 -1.01169,-0.70596 -1.4918,-1.03223 -2.03125,-1.40625 l -7.53125,15 -0.625,1.21875 -0.96875,-0.96875 -5.375,-5.34375 -3.59375,9.125 -1.90625,12 c 0.21255,0.0309 0.4354,0.0625 0.65625,0.0625 l 4.09375,0 7,0 1.53125,0 21.9375,0 0.5,0 c 2.47514,0 4.46875,-1.99361 4.46875,-4.46875 l 0,-33.375 z"
       id="rect3782-2" />
  </g>
</svg>
