<?xml version="1.0" encoding="UTF-8" standalone="no"?>
<!-- Created with Inkscape (http://www.inkscape.org/) -->

<svg
   xmlns:dc="http://purl.org/dc/elements/1.1/"
   xmlns:cc="http://creativecommons.org/ns#"
   xmlns:rdf="http://www.w3.org/1999/02/22-rdf-syntax-ns#"
   xmlns:svg="http://www.w3.org/2000/svg"
   xmlns="http://www.w3.org/2000/svg"
   xmlns:sodipodi="http://sodipodi.sourceforge.net/DTD/sodipodi-0.dtd"
   xmlns:inkscape="http://www.inkscape.org/namespaces/inkscape"
   width="744.09448819"
   height="1052.3622047"
   id="svg2"
   version="1.1"
   inkscape:version="0.48.1 r9760"
   sodipodi:docname="tab_fill_selected.svgz">
  <defs
     id="defs4" />
  <sodipodi:namedview
     id="base"
     pagecolor="#ffffff"
     bordercolor="#666666"
     borderopacity="1.0"
     inkscape:pageopacity="0.0"
     inkscape:pageshadow="2"
     inkscape:zoom="15.347419"
     inkscape:cx="131.6076"
     inkscape:cy="683.21699"
     inkscape:document-units="px"
     inkscape:current-layer="layer1"
     showgrid="false"
     showguides="true"
     inkscape:guide-bbox="true"
     inkscape:window-width="1920"
     inkscape:window-height="1148"
     inkscape:window-x="0"
     inkscape:window-y="24"
     inkscape:window-maximized="1">
    <sodipodi:guide
       orientation="1,0"
       position="99.913574,515.22597"
       id="guide2985" />
    <sodipodi:guide
       orientation="1,0"
       position="148.01901,689.49275"
       id="guide2987" />
    <sodipodi:guide
       orientation="0,1"
       position="178.94968,700.14064"
       id="guide2989" />
    <sodipodi:guide
       orientation="0,1"
       position="120.33829,652.00237"
       id="guide2991" />
    <sodipodi:guide
       orientation="1,0"
       position="101.9816,687.55024"
       id="guide3772" />
    <sodipodi:guide
       orientation="1,0"
       position="145.97938,684.15086"
       id="guide3774" />
    <sodipodi:guide
       orientation="0,1"
       position="135.10134,698.03978"
       id="guide3776" />
    <sodipodi:guide
       orientation="0,1"
       position="121.60092,654.042"
       id="guide3778" />
  </sodipodi:namedview>
  <metadata
     id="metadata7">
    <rdf:RDF>
      <cc:Work
         rdf:about="">
        <dc:format>image/svg+xml</dc:format>
        <dc:type
           rdf:resource="http://purl.org/dc/dcmitype/StillImage" />
        <dc:title></dc:title>
      </cc:Work>
    </rdf:RDF>
  </metadata>
  <g
     inkscape:label="Layer 1"
     inkscape:groupmode="layer"
     id="layer1">
    <path
       style="fill:#808080;fill-opacity:1;stroke:#000000;stroke-width:0;stroke-linecap:round;stroke-linejoin:round;stroke-miterlimit:10.60000038;stroke-opacity:1;stroke-dasharray:none"
       d="M 106.4375 354.3125 C 103.96236 354.3125 101.96875 356.30611 101.96875 358.78125 C 101.96475 371.35257 101.95385 383.05862 101.96875 393.875 C 101.96875 395.3976 102.7323 396.70396 103.875 397.5 L 105.75 385.84375 L 105.75 385.71875 L 105.78125 385.625 L 109.96875 374.9375 L 110.53125 373.53125 L 111.59375 374.59375 L 117.09375 380.09375 L 124.53125 365.28125 L 125.0625 364.25 L 126 364.90625 C 126 364.90625 127.48439 365.93301 128.96875 366.96875 C 129.71093 367.48664 130.44015 368.00943 131 368.40625 C 131.08852 368.469 131.14005 368.5064 131.21875 368.5625 C 131.39259 368.35138 131.5412 368.17657 131.78125 367.875 C 132.5014 366.97028 133.46987 365.72504 134.4375 364.46875 C 136.37275 361.95617 138.3125 359.40625 138.3125 359.40625 L 138.59375 359.03125 L 139.03125 359 L 145.9375 358.4375 C 145.76086 356.12624 143.85793 354.3125 141.5 354.3125 L 106.4375 354.3125 z M 145.96875 360.46875 L 139.625 360.96875 C 139.37129 361.30328 137.83067 363.35128 136.03125 365.6875 C 134.72541 367.38184 133.0695 369.33033 131.5625 371.21875 C 131.17511 370.95458 130.97611 370.77806 129.84375 370.03125 C 129.29185 369.64007 128.55266 369.14148 127.8125 368.625 C 126.80081 367.91904 126.3207 367.59277 125.78125 367.21875 L 118.25 382.21875 L 117.625 383.4375 L 116.65625 382.46875 L 111.28125 377.125 L 107.6875 386.25 L 105.78125 398.25 C 105.9938 398.28086 106.21665 398.3125 106.4375 398.3125 L 110.53125 398.3125 L 117.53125 398.3125 L 119.0625 398.3125 L 141 398.3125 L 141.5 398.3125 C 143.97514 398.3125 145.96875 396.31889 145.96875 393.84375 L 145.96875 360.46875 z "
       id="rect3782" />
    <rect
       style="opacity:0.32365147999999999;fill:none;fill-opacity:1;stroke:none;stroke-width:0;stroke-linejoin:round;stroke-miterlimit:4;stroke-opacity:1;stroke-dasharray:none"
       id="rect3780"
       width="48.105434"
       height="48.138271"
       x="99.913574"
       y="352.22156" />
  </g>
</svg>
